PathFileType	4	(X/Y/Z)	/home/nbianco/projects/addbio/data/HamnerRunning2013/Processed/subject02//results/MarkerData/run300.trc
DataRate	CameraRate	NumFrames	NumMarkers	Units	OrigDataRate	OrigDataStartFrame	OrigNumFrames
119.99	119.99	8	42	m	119.99	100	269
Frame#	Time	C7			CLAV			LACR			LASI			LCAL			LFAradius			LFAsuperior			LFAulna			LLEL			LMEL			LMT5			LPSI			LTB1			LTB2			LTB3			LTH1			LTH2			LTH3			LTOE			LUA1			LUA2			LUA3			RACR			RASI			RCAL			RFAradius			RFAsuperior			RFAulna			RLEL			RMEL			RMT5			RPSI			RTB1			RTB2			RTB3			RTH1			RTH2			RTH3			RTOE			RUA1			RUA2			RUA3		
		X1	Y1	Z1	X2	Y2	Z2	X3	Y3	Z3	X4	Y4	Z4	X5	Y5	Z5	X6	Y6	Z6	X7	Y7	Z7	X8	Y8	Z8	X9	Y9	Z9	X10	Y10	Z10	X11	Y11	Z11	X12	Y12	Z12	X13	Y13	Z13	X14	Y14	Z14	X15	Y15	Z15	X16	Y16	Z16	X17	Y17	Z17	X18	Y18	Z18	X19	Y19	Z19	X20	Y20	Z20	X21	Y21	Z21	X22	Y22	Z22	X23	Y23	Z23	X24	Y24	Z24	X25	Y25	Z25	X26	Y26	Z26	X27	Y27	Z27	X28	Y28	Z28	X29	Y29	Z29	X30	Y30	Z30	X31	Y31	Z31	X32	Y32	Z32	X33	Y33	Z33	X34	Y34	Z34	X35	Y35	Z35	X36	Y36	Z36	X37	Y37	Z37	X38	Y38	Z38	X39	Y39	Z39	X40	Y40	Z40	X41	Y41	Z41	X42	Y42	Z42

101	1.96667	0.845089	1.53262	-0.33632	0.957441	1.43702	-0.275868	0.968444	1.49285	-0.488155	0.919114	1.01436	-0.452564	0.35567	0.475258	-0.372888	1.03256	1.15773	-0.438512	0.932677	1.15459	-0.591866	1.03881	1.09019	-0.465101	0.848197	1.17012	-0.64139	0.782934	1.16863	-0.580582	0.303569	0.315235	-0.449352	0.72833	1.05302	-0.388842	0.691775	0.400673	-0.393898	0.600111	0.414269	-0.447447	0.488334	0.382885	-0.386902	0.844442	0.794874	-0.493984	0.878119	0.669507	-0.474593	0.796803	0.568712	-0.458516	0.330629	0.243553	-0.366365	0.9604	1.39798	-0.562581	0.954932	1.32613	-0.553045	0.863182	1.32988	-0.587961	0.879852	1.49338	-0.15384	0.882566	1.04677	-0.19488	0.859206	0.102558	-0.33826	0.883583	1.08691	-0.0568183	0.739982	1.17764	0.0131084	0.853944	1.05513	0.000869149	0.650223	1.2358	-0.000522692	0.633508	1.22102	-0.0796468	1.02287	0.0509196	-0.25963	0.713573	1.0529	-0.309527	1.04534	0.403045	-0.299637	1.01689	0.334148	-0.236851	1.00539	0.240791	-0.31403	0.855722	0.874731	-0.145723	0.949484	0.792262	-0.15562	0.927744	0.664401	-0.199274	1.09278	0.0756381	-0.355717	0.823989	1.40781	-0.073786	0.795477	1.32323	-0.0705945	0.722069	1.34679	-0.0551792
102	1.975	0.845346	1.52935	-0.336285	0.957291	1.43221	-0.276598	0.966243	1.48738	-0.489703	0.916223	1.01053	-0.452415	0.374856	0.478317	-0.375343	1.02902	1.14043	-0.440493	0.927266	1.14443	-0.593275	1.03279	1.07358	-0.46886	0.843103	1.1644	-0.641254	0.778357	1.16347	-0.580193	0.323793	0.318943	-0.453633	0.725572	1.04883	-0.39034	0.710946	0.397094	-0.395564	0.620322	0.412649	-0.448932	0.50771	0.383549	-0.388924	0.848734	0.790472	-0.494231	0.888612	0.666542	-0.4755	0.811239	0.563479	-0.458137	0.349418	0.246494	-0.370733	0.956921	1.39169	-0.563267	0.95089	1.31999	-0.553402	0.859572	1.32429	-0.588918	0.879899	1.48861	-0.153656	0.880017	1.04467	-0.194798	0.834775	0.102803	-0.338296	0.897678	1.07516	-0.0532435	0.754331	1.16406	0.0182996	0.869725	1.04407	0.00563372	0.66299	1.22096	0.00579262	0.644441	1.20495	-0.0724918	0.998098	0.0502776	-0.259224	0.711057	1.04895	-0.311767	1.03337	0.396935	-0.298338	1.00157	0.328249	-0.236003	0.986307	0.236347	-0.313454	0.851327	0.871259	-0.146184	0.943307	0.787284	-0.154518	0.92072	0.660195	-0.200482	1.06855	0.0740814	-0.355288	0.827627	1.39932	-0.07276	0.80208	1.3137	-0.0691607	0.728552	1.33446	-0.0501909
103	1.98333	0.844926	1.52625	-0.336519	0.956918	1.42771	-0.277674	0.963831	1.48276	-0.490947	0.913562	1.00735	-0.453064	0.394332	0.479694	-0.377626	1.02504	1.12355	-0.442736	0.921545	1.1355	-0.594055	1.02632	1.0576	-0.473139	0.838023	1.15971	-0.64102	0.773384	1.1592	-0.579577	0.345534	0.320657	-0.457814	0.723104	1.04586	-0.391432	0.731008	0.393914	-0.396985	0.641332	0.411058	-0.450351	0.528106	0.383355	-0.390913	0.852736	0.786612	-0.494533	0.899232	0.664073	-0.476551	0.826412	0.559143	-0.457927	0.37015	0.247552	-0.375189	0.952799	1.38711	-0.564072	0.94668	1.31531	-0.554068	0.855465	1.31998	-0.589359	0.880329	1.48432	-0.153596	0.877594	1.0428	-0.195218	0.810077	0.102997	-0.338326	0.912943	1.06477	-0.0502824	0.770394	1.15199	0.0226212	0.886537	1.03426	0.00979039	0.676932	1.20735	0.0117827	0.656661	1.18997	-0.0657775	0.973185	0.0498855	-0.259009	0.708624	1.04665	-0.313176	1.01988	0.390657	-0.297143	0.984878	0.322448	-0.235511	0.966213	0.232204	-0.313247	0.847254	0.868688	-0.146229	0.93624	0.78237	-0.153532	0.91248	0.656614	-0.201332	1.04397	0.072942	-0.354945	0.830807	1.3931	-0.0724575	0.809215	1.30579	-0.0676849	0.735259	1.32356	-0.0467978
104	1.99167	0.843895	1.52344	-0.336586	0.9564	1.42388	-0.278939	0.961141	1.47901	-0.492062	0.911143	1.00464	-0.454657	0.413937	0.479362	-0.379777	1.02064	1.10774	-0.445302	0.915917	1.12852	-0.594025	1.01928	1.04285	-0.477787	0.832939	1.1562	-0.640815	0.7681	1.15597	-0.578979	0.3684	0.320405	-0.461842	0.720804	1.04378	-0.392076	0.751884	0.391568	-0.397885	0.66292	0.409523	-0.451637	0.549278	0.382366	-0.392843	0.856408	0.783332	-0.494893	0.909872	0.662278	-0.4775	0.842299	0.555609	-0.457962	0.392448	0.246794	-0.379559	0.948189	1.38393	-0.565121	0.942346	1.31182	-0.555071	0.850951	1.31676	-0.589306	0.881306	1.48037	-0.153568	0.875193	1.04125	-0.195895	0.785322	0.103347	-0.338237	0.929187	1.05663	-0.0481431	0.787665	1.1421	0.0260621	0.904249	1.02634	0.0129523	0.69167	1.19543	0.017363	0.669646	1.17655	-0.0595449	0.948208	0.0496234	-0.258852	0.706162	1.04557	-0.313791	1.00515	0.385162	-0.296155	0.967676	0.317709	-0.235057	0.94566	0.229027	-0.313066	0.843256	0.867321	-0.14585	0.928948	0.77839	-0.15263	0.90363	0.653889	-0.201265	1.01916	0.0723003	-0.354684	0.833819	1.38859	-0.0724773	0.816786	1.29941	-0.0662188	0.742155	1.31396	-0.0451804
105	2	0.842661	1.5212	-0.336158	0.955841	1.421	-0.280217	0.958111	1.47612	-0.49321	0.908859	1.00239	-0.456695	0.433488	0.477298	-0.381837	1.01576	1.09377	-0.448247	0.910602	1.12392	-0.593513	1.01152	1.03001	-0.482543	0.827649	1.15392	-0.640838	0.762611	1.15382	-0.578775	0.392098	0.318197	-0.465673	0.718572	1.04233	-0.39238	0.77338	0.390562	-0.39834	0.684874	0.40816	-0.452766	0.571015	0.380709	-0.394645	0.859834	0.780865	-0.495282	0.920551	0.661622	-0.478164	0.858706	0.553128	-0.458198	0.416075	0.244295	-0.383671	0.943315	1.38168	-0.566401	0.937876	1.30924	-0.556364	0.846144	1.31439	-0.588971	0.882866	1.47683	-0.15352	0.872853	1.04005	-0.196643	0.760668	0.103936	-0.338015	0.945975	1.05144	-0.0471431	0.805193	1.13469	0.0287381	0.922603	1.02084	0.0146847	0.706643	1.1855	0.0224351	0.682786	1.165	-0.0537948	0.923207	0.049302	-0.258614	0.703669	1.0453	-0.313909	0.989399	0.380825	-0.295206	0.950285	0.314259	-0.234281	0.924939	0.226798	-0.312648	0.838968	0.866912	-0.145298	0.921899	0.775693	-0.151831	0.894558	0.651835	-0.200132	0.994293	0.0718919	-0.354373	0.83722	1.38487	-0.0723615	0.824603	1.29428	-0.0648922	0.749271	1.30555	-0.0448736
106	2.00833	0.841659	1.51978	-0.335207	0.955345	1.41909	-0.281432	0.954799	1.47405	-0.494437	0.906611	1.00076	-0.458352	0.45282	0.47349	-0.383827	1.01021	1.08247	-0.451587	0.905257	1.12149	-0.593315	1.00293	1.01976	-0.487126	0.821801	1.15293	-0.641319	0.756891	1.1528	-0.579281	0.416441	0.314042	-0.469246	0.716373	1.04149	-0.39251	0.795209	0.391244	-0.398611	0.706974	0.407133	-0.453742	0.593107	0.378508	-0.396253	0.863262	0.7795	-0.495589	0.931346	0.66262	-0.478488	0.875345	0.55217	-0.458532	0.440913	0.240119	-0.387404	0.938388	1.38003	-0.567806	0.933224	1.30736	-0.557864	0.841111	1.3128	-0.588644	0.884924	1.4739	-0.153444	0.870639	1.03915	-0.197349	0.73615	0.104719	-0.337745	0.962793	1.0496	-0.0476308	0.82201	1.12965	0.0307879	0.94129	1.01818	0.014657	0.721308	1.1776	0.0269082	0.695663	1.15544	-0.0485557	0.898179	0.0488491	-0.258266	0.701232	1.04554	-0.313872	0.972714	0.377416	-0.294076	0.932488	0.311762	-0.233071	0.904072	0.225115	-0.311972	0.834128	0.866963	-0.144853	0.915193	0.774057	-0.151166	0.885348	0.650118	-0.198211	0.969471	0.0714408	-0.353936	0.841553	1.38123	-0.0718594	0.832468	1.29012	-0.0638177	0.756649	1.29835	-0.0449947
107	2.01667	0.841069	1.51923	-0.333985	0.954971	1.41795	-0.282635	0.951394	1.47272	-0.495673	0.904417	0.999966	-0.459094	0.471835	0.467949	-0.385727	1.00374	1.07467	-0.455292	0.899005	1.12055	-0.594293	0.993585	1.01275	-0.49136	0.815037	1.15326	-0.642435	0.750691	1.15309	-0.58056	0.441339	0.307986	-0.472463	0.714231	1.04134	-0.392607	0.817071	0.393628	-0.398893	0.729001	0.406581	-0.454566	0.615354	0.375833	-0.397643	0.867012	0.779463	-0.495689	0.942263	0.665591	-0.478525	0.891916	0.553163	-0.458858	0.466934	0.234329	-0.390691	0.933539	1.37894	-0.569224	0.928322	1.30619	-0.559508	0.83583	1.31221	-0.588548	0.887322	1.47188	-0.153397	0.86854	1.03854	-0.19792	0.711707	0.105616	-0.33752	0.979227	1.05124	-0.0498205	0.837598	1.12668	0.0322442	0.960023	1.01867	0.0127823	0.735335	1.17161	0.0307152	0.708166	1.14788	-0.0439257	0.873105	0.0483296	-0.257879	0.698983	1.0462	-0.313902	0.955076	0.374401	-0.292752	0.913883	0.309686	-0.231649	0.882948	0.22357	-0.311171	0.82873	0.86712	-0.144635	0.908633	0.772989	-0.150655	0.875815	0.648527	-0.196059	0.944698	0.0708591	-0.353416	0.847031	1.37766	-0.0710534	0.840248	1.28686	-0.063039	0.764277	1.29258	-0.0446926
108	2.025	0.840766	1.51944	-0.332825	0.954704	1.4174	-0.283918	0.948111	1.47214	-0.496815	0.902405	1.00009	-0.458929	0.490531	0.460706	-0.387482	0.996239	1.07087	-0.459287	0.891024	1.12046	-0.596866	0.983749	1.00941	-0.49526	0.807169	1.15499	-0.644201	0.743653	1.15492	-0.582379	0.466791	0.300131	-0.475214	0.712213	1.04192	-0.392772	0.838716	0.397375	-0.399197	0.750776	0.406571	-0.455212	0.637618	0.372701	-0.398839	0.871288	0.780865	-0.495545	0.953166	0.670555	-0.478387	0.908153	0.556289	-0.459101	0.49416	0.227033	-0.393494	0.928784	1.37858	-0.570606	0.92309	1.30584	-0.561262	0.830216	1.31292	-0.588758	0.88991	1.471	-0.153483	0.86647	1.03823	-0.198257	0.68726	0.106579	-0.33736	0.99504	1.05627	-0.0536635	0.852062	1.12557	0.0329699	0.978563	1.02246	0.00923779	0.748677	1.16729	0.0338121	0.7204	1.14224	-0.0400532	0.847977	0.047861	-0.257536	0.697028	1.04728	-0.314087	0.936526	0.37134	-0.291489	0.894271	0.307627	-0.230417	0.861452	0.221984	-0.310391	0.823026	0.867343	-0.14458	0.901885	0.772062	-0.150292	0.865629	0.647073	-0.194274	0.919915	0.0702212	-0.352907	0.853414	1.37476	-0.0702656	0.847887	1.28467	-0.0625479	0.772099	1.28846	-0.0435068
